<mxfile host="app.diagrams.net" modified="2023-11-30T11:00:59.454Z" agent="Mozilla/5.0 (Windows NT 10.0; Win64; x64) AppleWebKit/537.36 (KHTML, like Gecko) Chrome/118.0.0.0 Safari/537.36 OPR/104.0.0.0" version="22.1.5" etag="TtOdQ1iQpw68yeOf00xe" type="github">
  <diagram name="Page-1" id="OZP6yFTJAbQnzzLYD8LN">
    <mxGraphModel>
      <root>
        <mxCell id="0" />
        <mxCell id="1" parent="0" />
      </root>
    </mxGraphModel>
  </diagram>
</mxfile>
